<svg id="Capa_1" data-name="Capa 1" xmlns="http://www.w3.org/2000/svg" viewBox="0 0 1189.57 161.95"><title>logo1</title><path d="M142.62,111.94q-5.12,12.81-20.68,18.32a49.77,49.77,0,0,1,14.57,4.33q16,8.28,16,25.42a30.14,30.14,0,0,1-6.1,18.32q-11.84,16.15-37.83,16.15H47.86v-5.12H63.62V81.4H47.86V76.28h58.71a58.38,58.38,0,0,1,21.28,3.54q16.54,6.9,16.55,23.25A24.31,24.31,0,0,1,142.62,111.94ZM84.7,81.4v46.3h15a25.76,25.76,0,0,0,11.63-2.56q10.83-5.91,10.83-20.49v-2.57Q120.75,81.4,99.28,81.4Zm0,51.62v56.34h18.72a25,25,0,0,0,14.38-4.14q11-7.87,11-25.41a34.34,34.34,0,0,0-2-11.62Q121.15,133,104,133Z" transform="translate(-47.86 -70.37)"/><path d="M218.87,178.72a27.75,27.75,0,0,1-4.54,7.49q-9.06,10.24-24,10.24a30.88,30.88,0,0,1-11.23-2q-13.59-5.31-13.59-21.08a26.78,26.78,0,0,1,.59-5.71q4.92-20.88,52.21-21.47V133.61q-.21-20.3-16.16-20.69a14.85,14.85,0,0,0-6.7,1.38c-2.49,1.45-4.6,4.8-6.3,10-.4,1.31-.73,2.3-1,3q-2.35,6.51-8.47,6.5a13.06,13.06,0,0,1-3.15-.39q-5.91-1.77-5.91-8.08a12.24,12.24,0,0,1,2.17-6.7Q180,108,203.89,108q32.91.19,33.3,30.53v41.38q.19,9.65,4.92,10,6.1-.19,7.49-14.18l5.12.2a35.78,35.78,0,0,1-1.18,8.07q-3.15,12.42-16.94,12.41Q221.83,196.26,218.87,178.72ZM204.48,187q10.44-4.53,13.8-18.32V151.54a88.23,88.23,0,0,0-18.92,2q-14.18,3.54-14.18,16.94a31.43,31.43,0,0,0,.39,5.12q2,12.81,12.81,12.81A15.15,15.15,0,0,0,204.48,187Z" transform="translate(-47.86 -70.37)"/><path d="M293.53,191.14q13.39,0,17.14-8.48a12.48,12.48,0,0,0,1.19-5.32q0-8.86-12.42-15.17-2.55-1.36-8.47-3.94-15.56-6.69-20.68-12.41a21.71,21.71,0,0,1-5.52-14.77q0-14.78,16.16-20.49A47.69,47.69,0,0,1,296.88,108q14.19,0,23.25,5.51c0-3.81,1-6,3-6.5a11.1,11.1,0,0,1,2.16-.2v24.63h-5.51q-.8-18.12-19.9-18.32-13.8,0-17.14,8.47a13,13,0,0,0-.79,4.53q0,8.48,12,14.58,2.55,1.19,8.27,3.55,15.76,6.69,20.89,12.41A22.78,22.78,0,0,1,329,172.22q0,16.16-16.95,21.87a47,47,0,0,1-15.36,2.36q-15.57-.19-26.6-6.69c0,3.41-.86,5.38-2.56,5.91a17.24,17.24,0,0,1-2.76.19V165.92h6.11Q271.27,190.94,293.53,191.14Z" transform="translate(-47.86 -70.37)"/><path d="M339.64,110.75h13.79V92l18.91-4.14v22.85h28.57v4.93H372.34v59.89q.2,14.77,10.24,15.17,9.85-.19,14.19-17.73l5.32,1a45.08,45.08,0,0,1-1.58,6.1q-5.52,16.56-22.26,16.55a30.76,30.76,0,0,1-3.35-.2q-21.48-2-21.47-27.77v-53H339.64Z" transform="translate(-47.86 -70.37)"/><path d="M452.72,189.76c1.71.26,2.56,1.84,2.56,4.72H408.59v-4.92a39,39,0,0,0,7.68-.59q6.32-1.77,6.31-10.64V115.28h-14v-4.92h32.9v79.2h8.87A12.37,12.37,0,0,1,452.72,189.76ZM442.48,88.29Q439.12,95,431.25,95a12.5,12.5,0,0,1-5.32-1.18q-6.9-3.15-6.9-11a12.68,12.68,0,0,1,1.38-5.72,11.29,11.29,0,0,1,10.84-6.69A12.73,12.73,0,0,1,437,71.74a11.72,11.72,0,0,1,6.7,11A12.92,12.92,0,0,1,442.48,88.29Z" transform="translate(-47.86 -70.37)"/><path d="M519.31,178.72a27.71,27.71,0,0,1-4.53,7.49q-9.06,10.24-24,10.24a30.84,30.84,0,0,1-11.23-2q-13.61-5.31-13.6-21.08a27.44,27.44,0,0,1,.59-5.71q4.92-20.88,52.21-21.47V133.61q-.19-20.3-16.15-20.69a14.85,14.85,0,0,0-6.7,1.38q-3.75,2.17-6.31,10c-.39,1.31-.72,2.3-1,3q-2.37,6.51-8.47,6.5a13.08,13.08,0,0,1-3.16-.39q-5.91-1.77-5.91-8.08a12.24,12.24,0,0,1,2.17-6.7Q480.5,108,504.34,108q32.9.19,33.29,30.53v41.38q.2,9.65,4.93,10,6.11-.19,7.49-14.18l5.12.2A36.36,36.36,0,0,1,554,184q-3.16,12.42-17,12.41Q522.27,196.26,519.31,178.72ZM504.93,187q10.44-4.53,13.79-18.32V151.54a88.21,88.21,0,0,0-18.91,2q-14.19,3.54-14.19,16.94a30.31,30.31,0,0,0,.4,5.12q2,12.81,12.8,12.81A15.19,15.19,0,0,0,504.93,187Z" transform="translate(-47.86 -70.37)"/><path d="M603.24,189.76c1.71.26,2.56,1.84,2.56,4.72H561.28v-4.92a29.06,29.06,0,0,0,7.68-.79q5.71-1.58,5.71-10.44V115.28H561.28v-4.92H592.4l1,17.73a37.36,37.36,0,0,1,5.12-8.47Q608.37,108,622.94,108a25.68,25.68,0,0,1,12.61,3.15q14.58,7.68,14.58,28.76v49.65h8.47a12.22,12.22,0,0,1,2.36.2c1.71.26,2.57,1.84,2.57,4.72H618.61v-4.92a29.06,29.06,0,0,0,7.68-.79Q631,187,631,178.33v-41a33.76,33.76,0,0,0-1-8.27q-3.35-11.82-15.17-11.83a16.85,16.85,0,0,0-8.47,2.37q-11.22,6.5-12.61,22.46l-.19,47.48h7.29A12.37,12.37,0,0,1,603.24,189.76Z" transform="translate(-47.86 -70.37)"/><path d="M774.45,86.13q22.84,16.94,22.85,49.45Q797.3,163,779,180.3q-17.34,16.15-42,16.15a60.24,60.24,0,0,1-37.82-12.6q-22.28-17.53-22.27-49.06,0-27.19,18.52-44.33,17.34-16.15,42.16-16.15Q758.48,74.31,774.45,86.13Zm-1.58,48.46q-.2-54.37-35.86-54.77-35.65.2-35.85,55.76.2,55,36.44,55.36Q772.67,190.75,772.87,134.59Z" transform="translate(-47.86 -70.37)"/><path d="M860.93,189.76c1.71.26,2.57,1.84,2.57,4.72H811.88v-4.92a27.76,27.76,0,0,0,7.68-.79q5.72-1.58,5.71-10.44V115.28H811.88v-4.92h30.93l1,19.11a34.74,34.74,0,0,1,6.7-10.64Q860,109,871.77,109a24.38,24.38,0,0,1,4.33.39q9.27,2.37,9.26,11.63a11,11,0,0,1-.59,3.54q-2.35,6.51-9.26,6.51a10.41,10.41,0,0,1-3-.4q-3.36-1.18-6.7-7.09-2.76-4.73-5.52-4.73-2.57.19-5.71,3-10.44,9.25-10.44,29.75v38h14.38A12.22,12.22,0,0,1,860.93,189.76Z" transform="translate(-47.86 -70.37)"/><path d="M889.89,110.75h13.8V92L922.6,87.9v22.85h28.57v4.93H922.6v59.89q.2,14.77,10.24,15.17Q942.7,190.55,947,173l5.32,1a46.61,46.61,0,0,1-1.58,6.1q-5.52,16.56-22.26,16.55a30.76,30.76,0,0,1-3.35-.2q-21.48-2-21.47-27.77v-53h-13.8Z" transform="translate(-47.86 -70.37)"/><path d="M1035.29,180.5q-9.86,16-32.11,15.95a44.85,44.85,0,0,1-23.64-6.3q-19.12-11.43-19.11-37.63,0-15.17,7.28-26.6Q979.14,108,1002.59,108a47.48,47.48,0,0,1,22.26,5.12q14.78,7.68,14.77,22.46a14.15,14.15,0,0,1-3.15,9.45q-6.69,7.09-33.69,6.51l-21.47-.4v.4q1,39.41,25.61,39.4a25.79,25.79,0,0,0,6.31-.79q13.59-3.15,20.09-16.75l4.73,1.58A54.63,54.63,0,0,1,1035.29,180.5Zm-39.4-66.2q-13.8,6.11-14.58,31.32l17.53.4q8.28.39,12.81-.79,8.07-2.16,8.08-11.82a29.85,29.85,0,0,0-1-7.68q-3.35-12.81-16-12.81A17,17,0,0,0,995.89,114.3Z" transform="translate(-47.86 -70.37)"/><path d="M1113.11,113.12a27.34,27.34,0,0,1,2.76-6.31q5.72-9.25,15.17-9.26a14.64,14.64,0,0,1,5.32,1q6.3,2.56,6.3,9.06a5.74,5.74,0,0,1-.19,1.38q-1,5.33-6.31,5.32a6.88,6.88,0,0,1-4.53-2.17q-3.54-3.15-6.11-3.15-5.52.19-8.27,6.9,11,8.67,11.23,23.64a31.08,31.08,0,0,1-6.9,19.9q-10.83,13-29.94,13h-.59l-18.33-.2a18.5,18.5,0,0,0-2.56.2q-5.72,1.19-5.71,5.91.19,6.3,8.08,6.89l37.82.79a38.05,38.05,0,0,1,5.32.4q20.49,2.57,20.49,20.88a18.15,18.15,0,0,1-3.15,10.25q-9.45,14.78-40.39,14.77-12.4,0-21.28-3.55-13.2-5.31-13.2-16.15,0-6.71,5.91-13-7.68-5.52-7.88-15.57a18.33,18.33,0,0,1,1.19-6.5q3.73-10.44,15.36-10.44a27.91,27.91,0,0,1-3.54-2.36Q1055,154.5,1055,139.91a29,29,0,0,1,6.7-19.11q10.63-12.8,30.54-12.8A42.33,42.33,0,0,1,1113.11,113.12ZM1110,225.42q16.74-3.94,16.75-12.81a9.34,9.34,0,0,0-.6-3.35q-2-5.72-15.76-5.71l-34.28-.4a21.69,21.69,0,0,1-7.29-1.18,16.58,16.58,0,0,0-3.94,9.65,11,11,0,0,0,1.18,4.93q5.13,10.63,26.6,10.64A79.2,79.2,0,0,0,1110,225.42Zm-34.68-73.49q2.76,15.36,16.36,15.37a20.07,20.07,0,0,0,7.68-1.38q9.65-4.53,9.65-26.21a66.27,66.27,0,0,0-1-12.21q-2.57-14.58-16.16-14.58a20,20,0,0,0-7.09,1.18q-10.24,4.14-10.24,25.81A78.43,78.43,0,0,0,1075.28,151.93Z" transform="translate(-47.86 -70.37)"/><path d="M1201.57,178.72a27.71,27.71,0,0,1-4.53,7.49q-9.06,10.24-24,10.24a30.92,30.92,0,0,1-11.23-2q-13.59-5.31-13.59-21.08a27.44,27.44,0,0,1,.59-5.71q4.92-20.88,52.21-21.47V133.61q-.2-20.3-16.15-20.69a14.82,14.82,0,0,0-6.7,1.38q-3.75,2.17-6.31,10c-.39,1.31-.72,2.3-1,3q-2.37,6.51-8.47,6.5a13.08,13.08,0,0,1-3.16-.39q-5.91-1.77-5.91-8.08a12.24,12.24,0,0,1,2.17-6.7Q1162.76,108,1186.6,108q32.89.19,33.29,30.53v41.38q.19,9.65,4.93,10,6.11-.19,7.48-14.18l5.13.2a37,37,0,0,1-1.18,8.07q-3.16,12.42-17,12.41Q1204.53,196.26,1201.57,178.72ZM1187.19,187q10.44-4.53,13.79-18.32V151.54a88.13,88.13,0,0,0-18.91,2q-14.19,3.54-14.19,16.94a30.31,30.31,0,0,0,.4,5.12q2,12.81,12.8,12.81A15.19,15.19,0,0,0,1187.19,187Z" transform="translate(-47.86 -70.37)"/></svg>